<?xml version="1.0" encoding="utf-8"?>
<!-- Generator: Adobe Illustrator 16.0.2, SVG Export Plug-In . SVG Version: 6.00 Build 0)  -->
<!DOCTYPE svg PUBLIC "-//W3C//DTD SVG 1.1//EN" "http://www.w3.org/Graphics/SVG/1.1/DTD/svg11.dtd">
<svg version="1.1" id="Layer_1" xmlns="http://www.w3.org/2000/svg" xmlns:xlink="http://www.w3.org/1999/xlink" x="0px" y="0px"
	 width="369.782px" height="262.961px" viewBox="15.5 113.539 369.782 262.961"
	 enable-background="new 15.5 113.539 369.782 262.961" xml:space="preserve">
<g>
	<title>background</title>
	<polygon id="canvas_background" fill="none" points="-2.151,-23.833 412.13,-23.833 426.13,419.167 4.63,400.667 	"/>
</g>
<g>
	<title>Layer 1</title>
	<ellipse id="svg_1" fill="#007B39" cx="189.719" cy="197.747" rx="74.136" ry="75.33"/>
	<g id="svg_2">
		<path id="svg_3" fill="#F5B700" d="M174.22,250.457l3.044-12.495l-23.724-22.177c0.633,1.205,1.344,2.37,2.056,3.495h-0.04
			L174.22,250.457l4.547,0.201L174.22,250.457z"/>
		<path id="svg_4" fill="#009638" d="M188.415,214.099l44.64-4.5c2.373-6.71,3.202-13.981,2.215-21.213l-40.924,3.374
			L188.415,214.099L188.415,214.099z"/>
		<path id="svg_5" fill="#F5B700" d="M194.662,166.852L194.662,166.852l0.158-0.724l0,0l3.875-15.508
			c-8.185-1.326-16.843-0.281-24.989,3.496c-3.875,1.808-7.394,4.138-10.438,6.829l27.006,23.744L194.662,166.852L194.662,166.852z"
			/>
		<path id="svg_6" fill="#009638" d="M195.729,186.457l38.314-3.897c-0.593-2.209-1.384-4.419-2.372-6.549
			c-5.378-11.932-15.341-20.288-26.769-23.903l-4.666,17.315L195.729,186.457L195.729,186.457z"/>
		<path id="svg_7" fill="#F5B700" d="M188.889,190.395l-29.892-25.11c-4.389,5.103-7.552,11.129-9.252,17.598l33.728,29.649
			L188.889,190.395z"/>
		<path id="svg_8" fill="#F5B700" d="M182.127,218.116l-33.648-28.445c-0.633,5.785-0.158,11.731,1.581,17.557l28.548,25.19
			L182.127,218.116z"/>
		<path id="svg_9" fill="#009638" d="M178.767,250.618L178.767,250.618l30.96-15.548l0,0c0.158-0.081,0.316-0.121,0.435-0.201
			c0.356-0.161,0.673-0.322,1.028-0.522l-29.102,3.736L178.767,250.618L178.767,250.618z"/>
		<path id="svg_10" fill="#009638" d="M183.433,233.021l34.952-3.133c4.943-3.817,8.977-8.599,11.862-13.941l-43.217,3.455
			L183.433,233.021z"/>
	</g>
	<path id="svg_11" fill="#6AB036" d="M387.417,235.632l-0.197,0.724L387.417,235.632z"/>
	<path id="svg_12" fill="#6AB036" d="M370.612,308.149L370.612,308.149L370.612,308.149z"/>
	<polygon id="svg_13" fill="#6AB036" points="370.415,308.149 370.612,308.149 370.455,308.029 	"/>
	<polygon id="svg_14" fill="#006D33" points="370.612,308.149 370.612,308.149 371.048,306.462 370.455,308.029 	"/>
	<path id="svg_15" fill="#006D33" d="M383.938,261.505l0.514-0.04c0.356-1.165,0.633-2.369,0.831-3.615L383.938,261.505
		L383.938,261.505z"/>
	<g id="svg_16">
		<g id="svg_17">
			<path id="svg_18" fill="#F7BD00" d="M220.521,152.228c1.463,1.044,3.638,2.651,5.772,4.539c0.831,0.724,2.096,0.684,2.848-0.16
				l0.316-0.361c0.632-0.724,0.592-1.889-0.158-2.531c-1.503-1.325-4.033-3.495-6.287-5.063c-0.988-0.683-2.332-0.401-3.005,0.603
				l-0.04,0.081C219.334,150.219,219.571,151.544,220.521,152.228z"/>
			<path id="svg_19" fill="#F7BD00" d="M208.303,146.563c1.7,0.522,4.23,1.446,6.84,2.571c1.029,0.441,2.215,0,2.689-1.045
				l0.197-0.441c0.396-0.925,0-1.969-0.908-2.371c-1.82-0.803-4.864-2.089-7.475-2.933c-1.146-0.361-2.332,0.321-2.688,1.446
				l-0.04,0.081C206.603,145.035,207.195,146.201,208.303,146.563L208.303,146.563z"/>
			<path id="svg_20" fill="#F7BD00" d="M194.306,143.429c1.779,0.08,4.468,0.281,7.275,0.684c1.107,0.16,2.136-0.604,2.333-1.688
				l0.079-0.482c0.157-0.964-0.475-1.929-1.464-2.049c-1.977-0.321-5.218-0.764-7.986-0.885c-1.187-0.039-2.175,0.885-2.214,2.13
				v0.08C192.25,142.385,193.159,143.389,194.306,143.429L194.306,143.429z"/>
			<path id="svg_21" fill="#F7BD00" d="M230.405,161.829c1.106,1.406,2.769,3.576,4.31,5.986c0.594,0.964,1.858,1.245,2.808,0.643
				l0.396-0.241c0.83-0.521,1.067-1.646,0.554-2.49c-1.067-1.688-2.927-4.5-4.626-6.67c-0.752-0.924-2.096-1.044-3.045-0.281
				l-0.079,0.041C229.813,159.579,229.693,160.905,230.405,161.829L230.405,161.829z"/>
			<path id="svg_22" fill="#F7BD00" d="M238.828,174.404c0.672,1.647,1.66,4.219,2.49,6.951c0.316,1.084,1.424,1.727,2.491,1.405
				l0.474-0.12c0.949-0.281,1.504-1.285,1.187-2.21c-0.593-1.929-1.581-5.143-2.648-7.674c-0.475-1.124-1.74-1.606-2.847-1.124
				l-0.08,0.04C238.867,172.074,238.353,173.319,238.828,174.404L238.828,174.404z"/>
			<path id="svg_23" fill="#F7BD00" d="M242.584,189.269c0.197,1.769,0.435,4.5,0.475,7.394c0,1.124,0.908,2.049,2.016,2.049h0.475
				c0.988,0,1.779-0.804,1.779-1.808c0-2.009-0.119-5.385-0.435-8.156c-0.158-1.206-1.226-2.049-2.413-1.888h-0.078
				C243.256,187.06,242.426,188.104,242.584,189.269z"/>
			<path id="svg_24" fill="#F7BD00" d="M243.177,203.974c-0.316,1.768-0.83,4.459-1.582,7.231c-0.315,1.085,0.316,2.21,1.384,2.531
				l0.475,0.121c0.949,0.281,1.938-0.281,2.176-1.206c0.553-1.929,1.383-5.183,1.857-7.955c0.198-1.205-0.593-2.329-1.779-2.49
				h-0.078C244.441,202.045,243.374,202.849,243.177,203.974z"/>
			<path id="svg_25" fill="#F7BD00" d="M238.828,217.191c-0.792,1.607-2.018,4.058-3.52,6.508c-0.594,0.965-0.316,2.21,0.633,2.854
				l0.395,0.281c0.83,0.522,1.938,0.281,2.452-0.563c1.067-1.727,2.768-4.579,3.954-7.11c0.514-1.085,0.039-2.411-1.028-2.893
				l-0.079-0.04C240.567,215.705,239.342,216.107,238.828,217.191z"/>
			<path id="svg_26" fill="#F7BD00" d="M231.196,230.249c-1.187,1.325-3.045,3.334-5.14,5.263c-0.83,0.763-0.91,2.049-0.198,2.893
				l0.315,0.361c0.634,0.764,1.779,0.804,2.492,0.161c1.463-1.366,3.914-3.616,5.732-5.705c0.791-0.924,0.713-2.29-0.197-3.094
				l-0.079-0.08C233.252,229.284,231.947,229.365,231.196,230.249L231.196,230.249z"/>
			<path id="svg_27" fill="#F7BD00" d="M219.532,240.011c-1.503,0.925-3.835,2.331-6.366,3.576
				c-0.988,0.482-1.424,1.688-0.988,2.732l0.197,0.441c0.396,0.884,1.463,1.286,2.333,0.844c1.779-0.884,4.745-2.37,7.078-3.857
				c1.027-0.642,1.305-2.009,0.672-3.013l-0.04-0.08C221.786,239.69,220.521,239.409,219.532,240.011L219.532,240.011z"/>
			<path id="svg_28" fill="#F7BD00" d="M206.01,247.082c-1.503,0.924-3.836,2.33-6.366,3.576c-0.988,0.482-1.423,1.688-0.988,2.731
				l0.198,0.442c0.396,0.884,1.463,1.285,2.333,0.844c1.779-0.884,4.744-2.371,7.078-3.857c1.027-0.643,1.305-2.009,0.672-3.013
				l-0.039-0.08C208.264,246.761,206.998,246.439,206.01,247.082L206.01,247.082z"/>
			<path id="svg_29" fill="#F7BD00" d="M191.103,254.314c-1.502,0.923-3.835,2.329-6.366,3.575
				c-0.988,0.482-1.423,1.688-0.988,2.732l0.197,0.441c0.396,0.884,1.463,1.286,2.333,0.844c1.779-0.884,4.745-2.37,7.077-3.856
				c1.028-0.644,1.305-2.01,0.672-3.014l-0.039-0.08C193.356,253.992,192.091,253.711,191.103,254.314L191.103,254.314z"/>
			<path id="svg_30" fill="#F7BD00" d="M176.948,261.104c-1.542,0.843-3.954,2.089-6.563,3.173
				c-1.028,0.442-1.542,1.607-1.146,2.652l0.158,0.441c0.356,0.924,1.384,1.366,2.293,1.005c1.858-0.764,4.863-2.09,7.275-3.416
				c1.028-0.562,1.424-1.928,0.831-2.973l-0.04-0.08C179.202,260.942,177.937,260.541,176.948,261.104L176.948,261.104z"/>
			<path id="svg_31" fill="#F7BD00" d="M188.771,143.349c-1.779,0.12-4.468,0.361-7.236,0.844c-1.107,0.201-2.135-0.522-2.333-1.647
				l-0.079-0.482c-0.198-0.964,0.475-1.928,1.423-2.089c1.977-0.361,5.219-0.844,7.948-1.004c1.186-0.08,2.214,0.843,2.254,2.089
				v0.08C190.787,142.304,189.917,143.268,188.771,143.349L188.771,143.349z"/>
			<path id="svg_32" fill="#F7BD00" d="M175.406,146.361c-1.661,0.603-4.191,1.607-6.722,2.853c-0.988,0.482-2.214,0.08-2.728-0.924
				l-0.198-0.441c-0.435-0.885-0.08-1.969,0.791-2.411c1.779-0.884,4.784-2.33,7.354-3.254c1.107-0.402,2.333,0.201,2.728,1.325
				l0.04,0.081C177.066,144.755,176.513,145.96,175.406,146.361L175.406,146.361z"/>
			<path id="svg_33" fill="#F7BD00" d="M161.804,152.709c-1.423,1.045-3.559,2.732-5.693,4.661
				c-0.831,0.763-2.096,0.723-2.847-0.121l-0.316-0.361c-0.672-0.723-0.633-1.889,0.119-2.531c1.463-1.366,3.954-3.576,6.208-5.183
				c0.949-0.724,2.333-0.482,3.005,0.522l0.04,0.08C162.951,150.74,162.753,152.026,161.804,152.709z"/>
			<path id="svg_34" fill="#F7BD00" d="M151.049,163.477c-1.067,1.406-2.688,3.616-4.191,6.066
				c-0.593,0.964-1.819,1.286-2.768,0.683l-0.396-0.241c-0.831-0.521-1.107-1.606-0.593-2.45c1.028-1.728,2.807-4.54,4.507-6.75
				c0.751-0.964,2.096-1.124,3.005-0.361l0.079,0.04C151.603,161.227,151.761,162.553,151.049,163.477L151.049,163.477z"/>
			<path id="svg_35" fill="#F7BD00" d="M143.023,175.73c-0.632,1.688-1.582,4.258-2.333,7.03c-0.316,1.085-1.384,1.728-2.491,1.446
				l-0.475-0.12c-0.949-0.241-1.502-1.245-1.265-2.21c0.514-1.969,1.463-5.183,2.452-7.754c0.435-1.125,1.7-1.647,2.807-1.205
				l0.079,0.04C142.904,173.44,143.418,174.646,143.023,175.73z"/>
			<path id="svg_36" fill="#F7BD00" d="M140.018,189.31c-0.158,1.809-0.316,4.54-0.277,7.393c0,1.125-0.87,2.089-1.977,2.089h-0.475
				c-0.988,0.04-1.779-0.764-1.818-1.768c-0.04-2.009-0.04-5.384,0.237-8.155c0.119-1.206,1.187-2.09,2.373-1.929h0.079
				C139.306,187.141,140.137,188.145,140.018,189.31z"/>
			<path id="svg_37" fill="#F7BD00" d="M139.899,204.536c0.316,1.768,0.909,4.459,1.74,7.191c0.316,1.085-0.277,2.25-1.305,2.571
				l-0.435,0.16c-0.949,0.322-1.938-0.24-2.214-1.165c-0.593-1.928-1.502-5.142-1.977-7.914c-0.197-1.205,0.554-2.33,1.74-2.531
				h0.079C138.634,202.648,139.702,203.371,139.899,204.536L139.899,204.536z"/>
			<path id="svg_38" fill="#F7BD00" d="M144.921,218.999c0.791,1.607,2.096,4.018,3.638,6.429c0.593,0.964,0.355,2.21-0.554,2.852
				l-0.396,0.282c-0.83,0.563-1.898,0.321-2.451-0.482c-1.107-1.688-2.847-4.54-4.073-7.031c-0.553-1.084-0.079-2.41,0.989-2.932
				l0.079-0.041C143.142,217.553,144.367,217.955,144.921,218.999z"/>
			<path id="svg_39" fill="#F7BD00" d="M152.908,232.177c0.791,1.607,2.096,4.018,3.638,6.429c0.593,0.964,0.356,2.209-0.554,2.852
				l-0.395,0.281c-0.831,0.563-1.898,0.322-2.452-0.481c-1.107-1.688-2.847-4.54-4.073-7.031c-0.553-1.084-0.079-2.41,0.988-2.933
				l0.08-0.04C151.128,230.69,152.354,231.133,152.908,232.177z"/>
			<path id="svg_40" fill="#F7BD00" d="M161.962,246.198c0.791,1.607,2.096,4.018,3.638,6.429c0.593,0.964,0.356,2.209-0.554,2.852
				l-0.395,0.281c-0.831,0.563-1.898,0.322-2.452-0.481c-1.107-1.688-2.847-4.54-4.073-7.031c-0.554-1.084-0.079-2.41,0.989-2.933
				l0.079-0.04C160.183,244.752,161.409,245.154,161.962,246.198z"/>
		</g>
	</g>
</g>
<path fill="#F5B700" d="M88.23,290.118c3.54,0,5.556,2.017,5.556,5.556v3.271c0,3.539-2.016,5.556-5.556,5.556H66.501v54.435
	c0,3.539-1.971,5.511-5.511,5.511h-5.555c-3.54,0-5.511-1.972-5.511-5.511V304.5H28.195c-3.539,0-5.51-2.017-5.51-5.556v-3.271
	c0-3.539,1.971-5.556,5.51-5.556H88.23z"/>
<path fill="#F5B700" d="M158.561,358.553c1.389,3.943-0.358,6.362-4.436,6.362h-6.72c-3.226,0-5.287-1.523-6.228-4.569
	l-4.256-12.948h-37.32l-4.256,12.948c-0.941,3.046-3.002,4.569-6.272,4.569H82.71c-4.077,0-5.869-2.419-4.436-6.362l18.548-53.046
	c2.105-6.227,5.242-10.438,9.005-12.724c3.718-2.284,7.571-3.136,12.365-3.136c4.928,0,8.692,0.896,12.589,3.136
	c3.898,2.285,7.034,6.586,9.185,12.724L158.561,358.553z M104.35,333.105h27.822l-7.661-23.253
	c-0.986-3.091-3.091-4.659-6.272-4.659s-5.287,1.568-6.272,4.659L104.35,333.105z"/>
<path fill="#F5B700" d="M216.969,341.417l13.439,16.219c2.957,3.674,1.434,6.765-3.225,6.765h-7.707
	c-2.643,0-4.883-1.075-6.676-3.271l-15.053-18.906c-1.748-2.106-2.644-4.525-2.644-7.214v-1.792c0-2.688,1.522-4.032,4.435-4.032
	h1.122c12.186,0,17.07-3.987,17.07-12.32c0-8.423-4.93-12.365-17.07-12.365h-15.906v54.435c0,3.539-1.971,5.511-5.511,5.511h-5.555
	c-3.54,0-5.511-1.972-5.511-5.511v-63.261c0-3.539,1.971-5.556,5.511-5.556h28.001c10.844,0,19.041,2.374,24.643,7.079
	c5.555,4.748,8.332,11.29,8.332,19.623c0,11.38-5.869,19.713-16.756,24.059L216.969,341.417z"/>
<path fill="#007B39" d="M308.045,357.747c2.553,3.719,1.029,6.676-3.539,6.676h-7.482c-2.957,0-5.197-1.21-6.676-3.629
	l-10.395-16.219c-3.137-4.794-6.898-8.243-11.244-10.215H258.09v24.552c0,3.539-1.971,5.511-5.51,5.511h-5.557
	c-3.539,0-5.51-1.972-5.51-5.511v-63.216c0-3.539,1.971-5.556,5.51-5.556h5.557c3.539,0,5.51,2.017,5.51,5.556v24.059h11.021
	c2.912-1.389,5.242-3.092,7.033-5.107c1.793-2.016,2.6-3.092,3.898-5.197l9.99-15.681c1.523-2.419,3.719-3.629,6.676-3.629h6.676
	c4.57,0,6.094,2.957,3.584,6.676l-13.574,19.713c-3.449,5.018-6.094,8.064-10.035,10.708c3.896,2.239,7.303,5.331,10.17,9.408
	L308.045,357.747z"/>
<path fill="#007B39" d="M319.762,364.378c-3.316,0-5.242-1.702-5.781-5.063L313.398,356c-0.627-3.764,1.344-5.914,5.107-5.914
	h33.289c7.438,0,10.707-1.747,10.707-6.451c0-4.929-4.031-7.214-11.918-8.603l-13.664-2.419c-7.93-1.389-13.844-3.764-17.742-7.124
	c-3.941-3.359-5.914-8.333-5.914-14.829c0-13.038,9.633-20.52,27.018-20.52h26.881c3.314,0,5.242,1.702,5.779,5.107l0.582,3.271
	c0.449,3.764-1.389,5.959-5.107,5.959h-27.463c-7.438,0-10.709,1.657-10.709,5.869c0,4.569,3.943,6.586,11.873,8.02l14.158,2.554
	c7.93,1.434,13.307,3.45,17.293,6.944c3.988,3.539,5.914,8.557,5.914,15.412c0,13.44-9.633,21.146-27.016,21.146h-32.705V364.378z"
	/>
</svg>
